<?xml version="1.0" standalone="no"?>
<!DOCTYPE svg PUBLIC "-//W3C//DTD SVG 20010904//EN"
 "http://www.w3.org/TR/2001/REC-SVG-20010904/DTD/svg10.dtd">
<svg version="1.0" xmlns="http://www.w3.org/2000/svg"
 width="1040.000000pt" height="482.000000pt" viewBox="0 0 1040.000000 482.000000"
 preserveAspectRatio="xMidYMid meet">

<g transform="translate(0.000000,482.000000) scale(0.100000,-0.100000)"
fill="#000000" stroke="none">
<path d="M3245 3893 c-11 -20 -29 -48 -39 -61 -24 -30 -56 -92 -56 -108 0 -15
20 -23 83 -30 l52 -6 47 74 46 73 -46 48 c-25 26 -51 47 -57 47 -6 0 -19 -17
-30 -37z"/>
<path d="M8615 3908 c-170 -22 -218 -32 -199 -38 10 -4 -10 -7 -46 -6 -86 1
-193 -17 -310 -52 -52 -16 -122 -37 -155 -47 -33 -10 -120 -48 -193 -86 -73
-38 -135 -69 -138 -69 -3 0 -2 5 2 12 9 14 -191 -91 -256 -135 -25 -17 -68
-50 -97 -74 -51 -42 -52 -43 -80 -27 -27 15 -31 15 -95 -15 -82 -37 -90 -59
-27 -84 31 -12 47 -14 61 -6 16 9 14 3 -9 -33 -40 -62 -77 -113 -85 -116 -5
-2 -8 -8 -8 -12 0 -10 103 25 131 44 26 17 88 103 81 112 -4 4 -2 4 4 1 6 -4
34 17 61 46 28 29 87 88 133 131 46 43 77 75 69 71 -38 -23 -130 -98 -154
-126 -14 -18 -39 -42 -53 -53 -18 -14 -13 -3 18 33 51 62 139 138 224 193 61
39 101 52 54 17 -69 -52 -66 -55 11 -9 46 28 90 50 98 50 7 0 13 5 13 11 0 5
5 7 10 4 6 -3 10 -1 10 5 0 6 4 9 8 6 5 -3 38 4 73 15 255 80 565 124 704 100
39 -6 78 -12 87 -12 13 0 7 -15 -28 -65 -24 -36 -44 -69 -44 -73 0 -4 -55 -13
-122 -20 -68 -7 -136 -14 -153 -17 -23 -4 -27 -3 -15 6 12 8 8 9 -15 4 -16 -4
-34 -12 -38 -18 -6 -8 -10 -8 -13 0 -4 8 -27 7 -82 -6 -96 -22 -220 -57 -290
-81 -29 -11 -63 -19 -75 -19 -18 0 -19 -2 -7 -11 12 -8 10 -9 -8 -4 -16 5 -31
-1 -55 -21 -17 -15 -32 -31 -32 -37 0 -5 -11 -14 -25 -18 -20 -8 -17 -1 19 32
24 23 37 40 30 37 -121 -48 -155 -66 -203 -108 -31 -27 -65 -51 -76 -55 -11
-4 -18 -11 -15 -16 4 -5 0 -9 -7 -9 -20 0 -98 -52 -98 -65 0 -6 -24 -19 -54
-28 -29 -10 -69 -28 -87 -42 -19 -14 -50 -32 -69 -40 -19 -9 -42 -19 -50 -24
-17 -9 -45 -60 -37 -67 3 -3 33 3 67 14 63 19 149 77 150 100 0 7 5 10 11 7 5
-4 19 1 29 10 19 17 22 15 92 -51 40 -38 72 -72 71 -76 -2 -4 11 -19 27 -35
17 -15 30 -32 30 -38 0 -5 33 -40 73 -76 l73 -67 54 11 54 10 38 -43 c21 -23
38 -46 38 -51 0 -5 -18 -9 -39 -9 -22 0 -43 -5 -47 -11 -5 -9 9 -10 52 -5 l59
6 54 -55 53 -55 -40 0 c-73 0 -103 -10 -100 -34 2 -11 13 -25 26 -31 12 -5 22
-17 22 -27 0 -32 59 -49 155 -46 60 2 90 7 93 16 2 7 -5 12 -18 12 -12 0 -18
5 -15 10 3 6 2 10 -4 10 -5 0 -12 -6 -14 -12 -3 -7 -6 -3 -6 10 -1 13 3 20 9
17 5 -3 7 0 4 8 -3 8 -15 19 -26 24 -18 8 -19 11 -6 15 10 4 38 -20 88 -75 40
-45 77 -91 82 -102 15 -34 93 -55 202 -55 59 0 96 4 96 10 0 24 -34 60 -55 60
-12 0 -28 6 -34 14 -9 11 -6 12 16 9 l28 -5 -30 26 c-16 14 -26 25 -21 26 15
0 -36 50 -51 50 -8 0 -11 -4 -8 -10 15 -24 -6 -7 -26 21 -17 24 -19 33 -9 39
9 6 6 10 -11 15 -14 5 -25 3 -27 -4 -5 -16 -22 -14 -22 4 0 11 -12 15 -42 16
-37 0 -40 2 -20 10 13 5 20 13 17 19 -4 6 -11 7 -17 4 -6 -4 -8 -2 -5 3 4 6 0
16 -9 23 -11 10 -12 15 -3 21 6 4 -11 8 -40 10 -31 3 -50 0 -48 -6 2 -5 9 -10
14 -10 6 0 15 -4 20 -9 5 -6 2 -6 -6 -1 -11 6 -13 4 -7 -11 8 -21 7 -20 -50
46 -23 27 -27 35 -11 21 15 -14 27 -20 27 -15 -1 12 -22 40 -36 45 -17 6 -144
145 -144 157 0 6 -8 16 -17 21 -10 6 -14 11 -9 11 5 0 41 -34 81 -75 40 -41
76 -75 79 -75 13 0 -25 61 -45 73 -11 6 -29 27 -41 45 -21 35 -87 82 -113 82
-10 0 -15 7 -13 18 2 11 -4 18 -19 20 -13 2 -23 7 -23 12 0 5 -30 27 -67 49
-78 45 -109 75 -118 114 -9 35 -40 57 -85 58 l-35 1 38 16 c24 9 36 20 33 29
-3 7 1 13 9 13 24 0 65 23 65 36 0 7 5 16 12 20 7 4 8 3 4 -4 -9 -16 -11 -16
59 12 34 14 61 32 63 41 3 12 11 16 29 12 13 -2 59 6 101 19 42 13 112 31 156
39 98 19 319 19 406 0 35 -7 68 -11 71 -9 4 2 20 6 36 8 15 1 75 18 132 37
110 36 108 35 130 117 7 23 16 42 21 42 6 0 10 5 10 11 0 7 13 26 29 43 16 17
53 57 83 88 29 32 59 58 66 58 7 0 11 4 7 9 -12 20 -211 32 -310 19z m148 -36
c15 -16 13 -17 -48 -8 -67 10 -69 26 -4 26 22 0 42 -7 52 -18z m93 9 c-3 -5
-14 -11 -25 -14 -14 -3 -18 -1 -14 9 3 8 14 14 25 14 10 0 17 -4 14 -9z m-483
-28 c-7 -2 -19 -2 -25 0 -7 3 -2 5 12 5 14 0 19 -2 13 -5z m-76 -9 c-3 -3 -12
-4 -19 -1 -8 3 -5 6 6 6 11 1 17 -2 13 -5z m-127 -30 c-100 -24 -117 -27 -108
-19 5 6 95 30 138 38 71 13 54 2 -30 -19z m-150 -39 c-19 -7 -42 -13 -50 -13
-8 0 1 6 20 13 19 7 42 13 50 13 8 0 -1 -6 -20 -13z m535 -205 c7 -12 -2 -12
-30 0 -19 8 -19 9 2 9 12 1 25 -3 28 -9z m-1325 -260 c0 -5 -5 -10 -11 -10 -5
0 -7 5 -4 10 3 6 8 10 11 10 2 0 4 -4 4 -10z m15 -120 c3 -5 -1 -10 -10 -10
-9 0 -13 5 -10 10 3 6 8 10 10 10 2 0 7 -4 10 -10z m-5 -29 c6 -2 -23 -21 -31
-21 -4 0 -9 6 -12 13 -4 12 10 14 43 8z m190 -11 c12 -6 19 -14 17 -17 -3 -2
-16 3 -29 11 -14 9 -27 14 -30 10 -3 -3 -9 -1 -12 5 -8 12 24 7 54 -9z m60
-11 c0 -6 -4 -7 -10 -4 -5 3 -10 11 -10 16 0 6 5 7 10 4 6 -3 10 -11 10 -16z
m-390 -51 c-22 -23 -34 -21 -24 6 3 9 15 16 25 16 19 0 19 -1 -1 -22z m414
-20 c-4 -6 -2 -8 4 -4 6 3 22 -5 37 -20 14 -14 32 -23 40 -20 9 3 15 -1 15
-11 0 -9 8 -22 18 -30 24 -20 -1 -7 -77 41 -35 22 -59 42 -53 44 7 2 9 9 6 14
-4 7 -2 8 5 4 6 -4 8 -12 5 -18z m-81 -125 c-7 -2 -19 -2 -25 0 -7 3 -2 5 12
5 14 0 19 -2 13 -5z m216 -47 c-3 -3 -11 5 -18 17 -13 21 -12 21 5 5 10 -10
16 -20 13 -22z m30 -29 c8 -10 7 -14 -2 -14 -8 0 -14 6 -14 14 0 7 1 13 2 13
2 0 8 -6 14 -13z m244 -404 c-7 -2 -19 -2 -25 0 -7 3 -2 5 12 5 14 0 19 -2 13
-5z m460 -117 c4 -10 1 -13 -9 -9 -7 3 -14 9 -14 14 0 14 17 10 23 -5z"/>
<path d="M4995 3846 c-47 -80 -106 -148 -203 -233 -42 -37 -77 -72 -77 -77 0
-6 -8 -10 -18 -8 -24 4 -21 -11 5 -23 13 -6 27 -19 33 -30 27 -53 32 -58 49
-48 15 8 15 12 -5 37 l-22 28 108 106 c59 59 119 124 133 145 13 20 28 37 33
37 10 0 40 -42 71 -103 l26 -47 11 43 c11 44 5 82 -18 126 -7 12 -16 19 -21
16 -6 -3 -7 1 -4 9 3 9 -5 26 -20 41 -14 14 -26 30 -26 35 0 25 -21 5 -55 -54z
m80 4 c10 -11 16 -20 13 -20 -3 0 -13 9 -23 20 -10 11 -16 20 -13 20 3 0 13
-9 23 -20z m-295 -401 c0 -6 -4 -7 -10 -4 -5 3 -10 11 -10 16 0 6 5 7 10 4 6
-3 10 -11 10 -16z"/>
<path d="M6212 3700 c-66 -75 -70 -142 -24 -410 7 -43 6 -46 -32 -85 -21 -22
-47 -58 -57 -81 -10 -23 -38 -59 -61 -80 -49 -45 -132 -104 -147 -104 -18 0
-70 -51 -65 -64 3 -8 -24 -32 -70 -62 -45 -29 -71 -51 -64 -55 16 -10 60 12
54 27 -3 7 2 15 11 18 11 4 14 2 9 -9 -5 -14 -2 -14 24 0 17 9 30 24 30 35 0
10 9 22 22 26 26 8 48 28 48 44 0 6 4 8 10 5 5 -3 58 36 118 87 121 105 226
188 253 203 11 5 19 15 19 22 0 7 9 13 21 13 12 0 18 4 13 11 -3 6 -1 15 7 20
11 6 11 11 -2 26 -24 28 -40 88 -55 197 -17 120 -19 170 -10 218 4 20 3 39 -1
41 -4 3 -27 -17 -51 -43z m78 -424 c0 -2 2 -11 5 -18 7 -17 -101 -112 -116
-103 -6 5 -3 13 10 22 22 15 30 40 9 27 -7 -4 -8 -3 -4 4 4 7 13 12 21 12 7 0
16 7 19 16 4 10 2 13 -7 8 -6 -4 -3 2 7 14 16 19 56 31 56 18z m-340 -326 c0
-5 -5 -10 -11 -10 -5 0 -7 5 -4 10 3 6 8 10 11 10 2 0 4 -4 4 -10z"/>
<path d="M2867 3694 c-3 -3 -59 -5 -124 -5 -129 1 -354 -31 -476 -69 -37 -11
-165 -71 -285 -132 -414 -212 -545 -276 -613 -299 -71 -24 -92 -45 -65 -65 9
-6 16 -16 16 -23 0 -6 13 -14 30 -17 23 -5 34 -16 49 -48 46 -100 73 -174 78
-219 4 -31 12 -51 24 -57 13 -7 207 -40 236 -40 2 0 3 7 3 15 0 21 61 86 139
148 36 28 107 86 157 128 205 172 431 297 724 403 163 58 237 79 257 72 12 -5
14 -15 9 -47 -7 -46 -31 -88 -38 -68 -5 15 -73 -224 -87 -306 -5 -33 -15 -103
-21 -155 -6 -52 -16 -117 -21 -145 -6 -27 -12 -105 -15 -173 -2 -68 -6 -127
-9 -132 -8 -12 -196 -84 -285 -109 -149 -41 -255 -54 -334 -41 -89 15 -179 48
-173 63 10 29 30 147 25 152 -3 3 -51 8 -106 12 l-100 6 -7 -58 -8 -58 -96 6
-97 6 -42 -62 c-23 -35 -101 -121 -172 -192 -72 -71 -130 -133 -130 -138 0 -4
15 -6 33 -3 17 3 114 8 215 12 164 5 182 4 182 -10 0 -46 -62 -191 -143 -338
l-92 -164 -99 17 c-85 14 -108 14 -155 4 -31 -7 -82 -18 -114 -25 -31 -6 -57
-15 -57 -20 0 -23 69 -48 149 -55 60 -5 80 -10 68 -17 -10 -5 -22 -6 -29 -2
-6 4 -8 3 -5 -3 10 -15 89 -14 142 1 l46 14 -20 -31 c-10 -18 -44 -73 -74
-123 -48 -82 -83 -130 -173 -241 -22 -28 -24 -33 -9 -33 9 0 29 7 44 16 27 16
31 15 96 -16 38 -18 89 -53 115 -79 40 -40 48 -56 63 -121 10 -45 16 -105 15
-150 -3 -74 -3 -75 22 -72 13 1 67 26 120 55 l95 52 32 80 c27 69 133 505 133
548 0 9 -8 18 -17 20 -10 3 3 5 29 6 26 0 50 6 53 11 3 6 21 9 38 9 l32 -2
-35 -7 c-19 -4 -33 -9 -30 -10 48 -25 505 -7 823 31 86 10 162 19 168 19 5 0
7 5 3 11 -5 8 -2 9 11 1 13 -7 26 -7 42 1 30 13 35 8 68 -78 15 -38 35 -79 45
-90 10 -11 25 -34 34 -52 8 -17 22 -37 30 -45 20 -21 66 -114 66 -135 0 -10 7
-31 15 -46 8 -15 10 -25 6 -22 -14 8 4 -57 28 -100 37 -67 68 -117 78 -124 4
-3 17 -22 27 -42 27 -52 44 -72 54 -65 5 3 28 30 51 60 l42 54 -27 38 c-24 36
-26 44 -20 116 7 84 50 241 98 357 l31 74 -22 41 c-11 23 -50 75 -85 116 -36
41 -62 78 -58 81 4 4 48 25 97 47 182 81 265 123 265 135 0 23 -62 88 -81 85
-13 -2 -30 16 -64 70 l-45 74 16 64 c18 72 15 82 -31 85 -76 6 -94 0 -109 -34
-16 -39 -88 -95 -181 -141 -36 -18 -64 -34 -63 -37 2 -3 -5 4 -16 16 -65 72
-155 333 -172 503 l-6 67 174 160 175 160 -44 17 c-40 16 -46 17 -83 2 -22 -9
-51 -29 -64 -45 -14 -16 -28 -29 -32 -29 -4 0 -14 -7 -23 -15 -9 -8 -38 -34
-66 -57 l-50 -41 -3 74 c-5 113 15 259 74 539 30 140 57 263 60 273 5 16 14
17 95 11 74 -6 96 -4 129 11 22 10 40 21 40 26 0 4 -20 25 -45 47 l-45 40
-100 -2 c-54 -1 -97 1 -94 6 3 4 -2 8 -10 8 -8 0 -18 -5 -22 -12 -5 -8 -11 -6
-20 6 -9 13 -17 15 -29 8 -10 -5 -35 -6 -59 -1 -48 10 -180 12 -189 3z m490
-44 c-47 -25 -56 -25 -26 0 13 10 33 19 44 20 14 0 8 -6 -18 -20z m-529 3
c-10 -2 -26 -2 -35 0 -10 3 -2 5 17 5 19 0 27 -2 18 -5z m95 0 c-7 -2 -21 -2
-30 0 -10 3 -4 5 12 5 17 0 24 -2 18 -5z m352 -13 c26 -11 -56 -11 -100 0 -25
6 -20 8 25 8 30 0 64 -3 75 -8z m-880 -30 c-27 -12 -43 -12 -25 0 8 5 22 9 30
9 10 0 8 -3 -5 -9z m510 -35 c-66 -19 -124 -34 -130 -34 -17 1 65 29 140 49
123 32 115 20 -10 -15z m142 3 c-3 -8 -6 -5 -6 6 -1 11 2 17 5 13 3 -3 4 -12
1 -19z m11 -192 c-23 -109 -44 -194 -46 -188 -8 24 73 400 84 389 2 -2 -15
-93 -38 -201z m-353 165 c-113 -39 -266 -101 -292 -117 -12 -8 -29 -14 -38
-14 -26 0 -155 -69 -237 -126 -43 -30 -87 -54 -98 -54 -11 0 -19 -5 -18 -11 2
-6 -3 -14 -11 -17 -9 -3 -11 0 -7 7 18 28 -211 -139 -275 -201 -19 -18 -65
-62 -104 -98 l-70 -65 56 65 56 65 -14 43 c-13 38 -13 45 1 67 87 132 860 467
1116 483 8 0 -21 -12 -65 -27z m270 -340 c-8 -40 -16 -84 -16 -99 -1 -27 -1
-27 -8 3 -6 28 11 144 25 167 14 22 13 -3 -1 -71z m-1015 -65 c0 -2 -8 -10
-17 -17 -16 -13 -17 -12 -4 4 13 16 21 21 21 13z m-75 -36 c-3 -5 -11 -10 -16
-10 -6 0 -7 5 -4 10 3 6 11 10 16 10 6 0 7 -4 4 -10z m35 7 c0 -2 -10 -12 -22
-23 l-23 -19 19 23 c18 21 26 27 26 19z m-477 -37 c3 -11 2 -18 -3 -15 -4 3
-10 14 -13 25 -3 11 -2 18 3 15 4 -3 10 -14 13 -25z m1494 8 c-3 -8 -6 -5 -6
6 -1 11 2 17 5 13 3 -3 4 -12 1 -19z m-1077 -22 c0 -2 -8 -10 -17 -17 -16 -13
-17 -12 -4 4 13 16 21 21 21 13z m1067 -48 c-3 -7 -5 -2 -5 12 0 14 2 19 5 13
2 -7 2 -19 0 -25z m-1127 -1 c0 -2 -10 -12 -22 -23 l-23 -19 19 23 c18 21 26
27 26 19z m1117 -69 c-3 -7 -5 -2 -5 12 0 14 2 19 5 13 2 -7 2 -19 0 -25z
m-10 -60 c-3 -8 -6 -5 -6 6 -1 11 2 17 5 13 3 -3 4 -12 1 -19z m-10 -70 c-3
-7 -5 -2 -5 12 0 14 2 19 5 13 2 -7 2 -19 0 -25z m-10 -70 c-3 -7 -5 -2 -5 12
0 14 2 19 5 13 2 -7 2 -19 0 -25z m28 -278 c-3 -5 -1 -10 6 -10 7 0 10 -3 6
-6 -9 -9 -28 6 -22 17 4 5 8 9 11 9 3 0 2 -4 -1 -10z m-85 -50 c0 -5 -2 -10
-4 -10 -2 0 -29 -11 -60 -25 -71 -31 -74 -18 -3 17 58 30 67 32 67 18z m120
-35 c0 -8 -2 -15 -4 -15 -2 0 -6 7 -10 15 -3 8 -1 15 4 15 6 0 10 -7 10 -15z
m-119 -52 c1 -16 19 -169 23 -198 2 -16 9 -45 15 -63 5 -19 8 -46 5 -62 -4
-15 -1 -37 5 -47 5 -11 15 -63 22 -114 6 -52 19 -110 29 -129 43 -84 101 -233
93 -240 -11 -10 -167 -28 -343 -40 -157 -10 -345 -12 -510 -4 -87 4 -116 2
-170 -15 -35 -11 -66 -18 -69 -16 -2 3 1 29 8 58 l12 53 104 13 c77 10 105 17
105 27 0 9 10 14 28 13 l27 -1 -25 -8 c-44 -14 -1 -11 73 6 40 9 79 23 88 31
10 8 18 10 20 4 2 -5 17 -7 34 -4 25 5 27 7 10 13 -15 5 -3 13 52 30 40 13 71
25 69 27 -4 4 -82 -11 -183 -34 -44 -10 -69 -21 -67 -28 3 -6 -6 -17 -20 -23
-21 -9 -24 -9 -19 3 3 10 -1 15 -13 15 -13 0 -221 -23 -270 -30 0 0 19 114 43
253 36 215 46 255 64 270 12 9 29 17 38 17 10 0 12 3 5 8 -7 4 27 8 75 9 99 2
203 34 471 147 161 68 170 71 171 59z m149 -51 c-1 -41 -17 -43 -27 -3 -10 38
-10 40 8 30 11 -5 19 -17 19 -27z m-1110 7 c24 -5 50 -15 56 -20 16 -13 364
-19 468 -8 43 5 85 14 92 20 8 7 17 9 20 6 9 -9 -86 -54 -181 -86 -46 -15 -81
-31 -78 -35 4 -4 1 -5 -7 -1 -19 7 -189 -30 -203 -44 -6 -6 -18 -11 -27 -10
-11 0 -9 3 5 10 15 7 12 8 -15 4 -149 -20 -293 -32 -332 -27 l-46 7 86 97 c48
54 94 98 102 98 8 0 35 -5 60 -11z m1186 -246 c7 -25 9 -43 4 -43 -6 0 -10 5
-10 11 0 6 -6 25 -14 42 -16 36 -46 114 -53 137 -2 8 10 -12 28 -45 17 -33 38
-79 45 -102z m-1518 40 c-21 -2 -57 -2 -80 0 -24 2 -7 4 37 4 44 0 63 -2 43
-4z m340 -17 c-7 -8 -15 -12 -17 -11 -5 6 10 25 20 25 5 0 4 -6 -3 -14z m-61
-18 c-3 -8 -6 -5 -6 6 -1 11 2 17 5 13 3 -3 4 -12 1 -19z m40 -40 c-3 -7 -5
-2 -5 12 0 14 2 19 5 13 2 -7 2 -19 0 -25z m1676 -10 c3 -23 13 -47 21 -54 9
-6 16 -21 16 -34 0 -31 28 -87 54 -108 12 -9 44 -36 70 -59 l49 -43 -54 -23
c-30 -13 -92 -34 -138 -47 l-84 -24 -39 45 c-46 53 -121 200 -113 221 8 21 47
48 133 93 58 30 72 42 69 57 -3 10 -2 18 3 18 4 0 10 -19 13 -42z m-596 -20
c-3 -7 -5 -2 -5 12 0 14 2 19 5 13 2 -7 2 -19 0 -25z m653 -1 c0 -5 -4 -5 -10
-2 -5 3 -10 14 -10 23 0 15 2 15 10 2 5 -8 10 -19 10 -23z m-449 -107 c22 -43
39 -81 39 -84 0 -4 5 -12 11 -19 5 -7 38 -64 73 -127 36 -67 71 -119 83 -125
12 -5 24 -16 28 -25 15 -40 39 -73 56 -77 11 -3 19 -10 19 -15 0 -6 16 -27 36
-47 19 -20 43 -44 53 -54 16 -16 14 -22 -36 -123 -29 -58 -53 -115 -53 -127 0
-44 -242 425 -312 603 -38 99 -78 252 -78 301 l0 39 21 -21 c12 -12 39 -56 60
-99z m-1304 18 c-3 -8 -6 -5 -6 6 -1 11 2 17 5 13 3 -3 4 -12 1 -19z m1793
-52 c0 -5 -7 -3 -15 4 -8 7 -15 22 -15 34 1 20 2 20 15 -4 8 -14 14 -29 15
-34z m-1941 -5 c-6 -18 -13 -30 -15 -28 -2 2 1 18 7 36 6 18 13 30 15 28 2 -2
-1 -18 -7 -36z m138 -3 c-3 -7 -5 -2 -5 12 0 14 2 19 5 13 2 -7 2 -19 0 -25z
m-10 -55 c-3 -10 -5 -4 -5 12 0 17 2 24 5 18 2 -7 2 -21 0 -30z m1904 -20 c13
-16 12 -17 -3 -4 -17 13 -22 21 -14 21 2 0 10 -8 17 -17z m59 -24 c0 -19 -27
-8 -38 16 -12 25 -12 25 13 9 14 -9 25 -20 25 -25z m-2141 -38 c-14 -40 -24
-59 -29 -50 -7 11 39 124 47 115 2 -1 -7 -31 -18 -65z m168 22 c-3 -10 -5 -4
-5 12 0 17 2 24 5 18 2 -7 2 -21 0 -30z m-21 -123 c-8 -41 -14 -64 -15 -51 -1
33 22 160 26 141 2 -8 -3 -49 -11 -90z m1231 28 c-3 -8 -6 -5 -6 6 -1 11 2 17
5 13 3 -3 4 -12 1 -19z m-920 -64 c-3 -3 -12 -4 -19 -1 -8 3 -5 6 6 6 11 1 17
-2 13 -5z m-180 -20 c-3 -3 -12 -4 -19 -1 -8 3 -5 6 6 6 11 1 17 -2 13 -5z
m-199 -61 c-5 -27 -15 -84 -23 -128 -8 -44 -21 -100 -30 -124 -8 -24 -15 -53
-15 -65 0 -11 -5 -28 -11 -36 -9 -13 -10 -13 -6 2 6 19 -45 48 -101 57 l-34 6
111 168 c61 92 112 167 114 167 3 0 0 -21 -5 -47z m165 30 c-7 -2 -19 -2 -25
0 -7 3 -2 5 12 5 14 0 19 -2 13 -5z m1552 -33 c10 -11 16 -20 13 -20 -3 0 -13
9 -23 20 -10 11 -16 20 -13 20 3 0 13 -9 23 -20z m-2052 -7 c-7 -2 -19 -2 -25
0 -7 3 -2 5 12 5 14 0 19 -2 13 -5z m374 -15 c-3 -8 -6 -5 -6 6 -1 11 2 17 5
13 3 -3 4 -12 1 -19z m1744 -60 c19 -24 26 -37 16 -29 -20 16 -61 71 -54 71 3
0 20 -19 38 -42z m-2 -318 c-38 -114 -54 -133 -23 -29 17 57 55 152 59 147 2
-2 -15 -55 -36 -118z m-1872 -2 c-3 -8 -6 -5 -6 6 -1 11 2 17 5 13 3 -3 4 -12
1 -19z m37 -42 c-3 -21 -8 -35 -11 -32 -2 2 -1 20 3 40 3 21 8 35 11 32 2 -2
1 -20 -3 -40z m-20 -90 c-3 -21 -8 -35 -11 -32 -2 2 -1 20 3 40 3 21 8 35 11
32 2 -2 1 -20 -3 -40z m1813 -8 c-3 -8 -6 -5 -6 6 -1 11 2 17 5 13 3 -3 4 -12
1 -19z m-138 -21 c0 -21 -1 -21 -9 -2 -12 28 -12 37 0 30 6 -3 10 -16 9 -28z
m-1789 -21 c0 -6 -7 -2 -15 8 -8 11 -15 25 -15 30 0 6 7 2 15 -8 8 -11 15 -25
15 -30z m1889 -50 c-9 -8 -10 -5 -5 14 3 14 7 36 8 50 1 14 3 8 5 -14 3 -22
-1 -43 -8 -50z m-1799 -6 c-7 -28 -14 -49 -16 -47 -3 2 1 27 8 55 6 29 13 50
16 47 2 -2 -1 -27 -8 -55z m1750 -5 c0 -5 -5 -3 -10 5 -5 8 -10 20 -10 25 0 6
5 3 10 -5 5 -8 10 -19 10 -25z m-1820 -38 c0 -5 -4 -5 -10 -2 -5 3 -10 14 -10
23 0 15 2 15 10 2 5 -8 10 -19 10 -23z"/>
<path d="M2790 1738 c-41 -11 -77 -23 -80 -28 -3 -5 -14 -9 -25 -9 -22 1 -52
-6 -100 -20 -22 -7 -25 -10 -10 -11 11 -1 -16 -14 -60 -30 -135 -48 -73 -36
87 16 26 9 53 12 59 8 7 -4 9 -3 6 3 -9 14 20 25 47 18 17 -5 18 -4 6 5 -12
10 -10 11 10 6 29 -7 163 41 154 55 -6 11 -3 12 -94 -13z"/>
<path d="M2128 2243 c12 -2 32 -2 45 0 12 2 2 4 -23 4 -25 0 -35 -2 -22 -4z"/>
<path d="M5171 3587 c-16 -42 -12 -68 5 -28 8 18 13 38 11 45 -3 6 -10 -2 -16
-17z"/>
<path d="M5182 3525 c-12 -42 -6 -202 9 -210 8 -6 29 49 29 76 0 11 -5 19 -10
19 -6 0 -8 15 -4 38 3 20 1 55 -4 77 l-9 40 -11 -40z"/>
<path d="M6121 3543 c-38 -27 -183 -212 -175 -225 4 -6 3 -8 -3 -5 -11 7 -49
-31 -76 -74 -9 -15 -41 -54 -72 -87 -36 -39 -53 -65 -49 -75 4 -13 12 -9 35
17 30 35 38 53 17 40 -7 -4 -8 -3 -4 5 4 6 12 9 17 6 5 -4 20 3 34 13 15 12
21 22 14 24 -7 2 7 24 33 51 24 26 51 59 59 75 8 15 23 35 35 44 11 9 33 36
49 60 16 24 44 59 63 78 29 30 59 71 50 69 -2 0 -14 -7 -27 -16z"/>
<path d="M4693 3467 c4 -24 25 -64 58 -109 29 -39 61 -94 71 -122 9 -28 18
-44 19 -36 0 8 5 4 10 -10 7 -21 8 -20 4 9 -3 19 -8 59 -11 88 -4 29 -11 50
-15 47 -5 -3 -14 6 -20 20 -7 14 -15 23 -20 21 -4 -3 -5 4 -2 15 3 12 0 20 -6
20 -7 0 -9 -4 -6 -10 3 -5 4 -10 1 -10 -3 0 -24 26 -47 58 l-42 57 6 -38z
m144 -219 c-3 -8 -6 -5 -6 6 -1 11 2 17 5 13 3 -3 4 -12 1 -19z"/>
<path d="M3001 3449 c-6 -18 -11 -39 -10 -48 0 -9 7 4 14 29 16 51 13 67 -4
19z"/>
<path d="M5202 3263 c-7 -23 -11 -110 -11 -219 1 -123 -3 -192 -11 -216 -13
-34 -9 -68 7 -68 23 0 37 51 39 145 2 55 6 122 10 149 5 36 3 50 -7 57 -10 6
-10 9 -1 9 16 0 16 93 -1 143 l-14 38 -11 -38z m15 -115 c-3 -8 -6 -5 -6 6 -1
11 2 17 5 13 3 -3 4 -12 1 -19z m-6 -318 c-7 -38 -9 -40 -10 -14 -1 41 12 107
16 79 2 -11 -1 -40 -6 -65z"/>
<path d="M4852 3130 c0 -19 2 -27 5 -17 2 9 2 25 0 35 -3 9 -5 1 -5 -18z"/>
<path d="M4892 3020 c0 -59 1 -62 10 -32 8 22 8 42 0 65 -9 29 -10 26 -10 -33z"/>
<path d="M5711 3056 c-19 -20 -21 -26 -9 -26 19 0 41 25 36 40 -2 6 -14 0 -27
-14z"/>
<path d="M4871 3024 c0 -11 3 -14 6 -6 3 7 2 16 -1 19 -3 4 -6 -2 -5 -13z"/>
<path d="M5662 3000 c-12 -10 -19 -21 -15 -23 5 -3 21 6 36 19 16 13 22 24 15
24 -7 -1 -23 -9 -36 -20z"/>
<path d="M4872 2980 c0 -14 2 -19 5 -12 2 6 2 18 0 25 -3 6 -5 1 -5 -13z"/>
<path d="M5595 2930 c4 -6 11 -8 16 -5 14 9 11 15 -7 15 -8 0 -12 -5 -9 -10z"/>
<path d="M5550 2908 c-14 -13 -19 -23 -12 -26 18 -6 52 22 43 36 -5 9 -14 6
-31 -10z"/>
<path d="M5564 2664 c-18 -14 -18 -14 6 -3 31 14 36 19 24 19 -6 0 -19 -7 -30
-16z"/>
<path d="M5167 2604 c-4 -4 -7 -14 -7 -23 0 -11 3 -12 11 -4 6 6 10 16 7 23
-2 6 -7 8 -11 4z"/>
<path d="M5157 2554 c-2 -5 -8 -24 -12 -43 -5 -26 -4 -32 6 -29 8 3 13 12 13
21 -1 9 2 14 7 11 5 -3 9 1 9 8 0 19 -17 42 -23 32z"/>
<path d="M5290 2480 c0 -5 7 -7 15 -4 8 4 15 8 15 10 0 2 -7 4 -15 4 -8 0 -15
-4 -15 -10z"/>
<path d="M4429 2431 c12 -7 12 -13 3 -24 -10 -12 -6 -15 27 -21 22 -3 47 -3
56 1 12 4 23 -1 34 -15 19 -26 81 -42 81 -21 0 27 -18 45 -31 32 -6 -6 -17 -9
-25 -6 -19 7 -5 33 14 26 14 -4 15 -3 2 5 -8 6 -18 8 -22 6 -4 -3 -8 -1 -8 4
0 10 -5 11 -85 18 -41 3 -55 2 -46 -5z m185 -66 c3 -8 1 -15 -4 -15 -6 0 -10
7 -10 15 0 8 2 15 4 15 2 0 6 -7 10 -15z"/>
<path d="M5175 2420 c-3 -5 -1 -10 4 -10 6 0 11 5 11 10 0 6 -2 10 -4 10 -3 0
-8 -4 -11 -10z"/>
<path d="M7879 2421 l-56 -6 49 -82 49 -83 94 0 c52 0 95 4 95 9 0 22 -22 65
-60 116 -45 61 -40 59 -171 46z"/>
<path d="M8200 2280 c0 -5 4 -10 9 -10 5 0 14 -13 21 -30 7 -16 17 -33 24 -38
6 -6 59 -13 117 -17 l106 -7 -1 23 c-1 14 -11 28 -24 35 -15 8 -20 14 -12 19
8 5 8 10 -1 21 -14 17 -239 21 -239 4z"/>
<path d="M5150 2250 c20 -13 43 -13 35 0 -3 6 -16 10 -28 10 -18 0 -19 -2 -7
-10z"/>
<path d="M4701 2227 c-28 -35 19 -66 51 -34 7 8 19 12 26 9 7 -2 12 5 12 17 0
12 -5 21 -11 21 -5 0 -7 -6 -3 -12 6 -10 4 -10 -7 0 -15 14 -43 17 -35 3 10
-15 -5 -41 -23 -41 -13 0 -13 2 -3 9 8 5 12 16 10 26 -3 17 -4 17 -17 2z"/>
<path d="M5128 2223 c7 -3 16 -2 19 1 4 3 -2 6 -13 5 -11 0 -14 -3 -6 -6z"/>
<path d="M4576 2187 c-17 -14 -26 -29 -22 -35 4 -7 3 -12 -3 -12 -5 0 -13 5
-16 10 -5 8 -11 7 -21 -1 -8 -6 -17 -9 -21 -5 -3 3 -1 6 5 6 7 0 12 5 12 10 0
7 -6 7 -20 0 -11 -6 -20 -18 -20 -27 0 -13 7 -14 38 -9 20 3 48 6 61 6 13 0
38 15 57 34 18 18 36 31 40 27 4 -3 4 0 0 7 -12 20 -59 14 -90 -11z"/>
<path d="M5069 2118 c-15 -29 0 -40 40 -28 19 5 39 7 45 4 6 -3 0 3 -14 15
-37 29 -59 32 -71 9z"/>
<path d="M6772 2045 c-32 -62 -70 -115 -122 -170 -73 -77 -110 -125 -110 -143
0 -13 95 -40 123 -35 14 3 33 0 44 -6 16 -11 16 -11 -4 -6 -13 4 -23 4 -23 2
0 -2 93 -59 208 -125 216 -126 342 -184 342 -157 0 18 0 18 43 0 20 -8 51 -15
70 -15 18 0 39 -6 45 -12 16 -16 264 -15 337 1 28 6 75 13 105 17 113 12 323
76 355 108 22 22 28 20 15 -3 -19 -36 -2 -48 106 -75 58 -15 108 -24 112 -22
4 3 7 17 7 33 -1 27 -5 29 -103 53 -56 13 -102 27 -102 30 0 3 12 12 28 20 23
13 35 14 80 4 40 -9 52 -9 52 0 0 18 -211 75 -281 76 -50 0 -121 -26 -210 -77
-74 -42 -78 -43 -165 -43 -50 0 -111 7 -138 15 -29 9 -64 12 -87 9 -41 -7 -51
-19 -21 -27 9 -3 -64 -5 -163 -4 -149 2 -182 5 -192 17 -6 9 -47 27 -90 40
-43 13 -89 34 -103 46 -14 12 -39 29 -56 37 -17 9 -36 23 -43 31 -11 13 -8 14
23 9 24 -4 36 -2 36 6 0 7 -9 9 -25 5 -14 -3 -25 -2 -25 4 0 6 -8 8 -19 5 -23
-6 -121 35 -121 52 0 6 9 20 20 30 25 22 27 43 3 24 -16 -13 -17 -12 -4 3 7
10 17 16 21 13 4 -2 16 5 26 18 19 21 19 21 -1 7 -18 -14 -19 -14 -6 2 7 10
17 15 22 13 9 -6 78 60 125 120 l32 40 33 -19 c19 -10 64 -39 100 -62 37 -24
72 -44 78 -44 6 0 19 -6 28 -14 81 -66 116 -85 181 -100 85 -19 85 -19 76 -3
-4 6 6 -2 22 -20 25 -27 43 -35 124 -52 138 -29 179 -34 193 -23 8 6 38 6 82
1 44 -6 101 -6 155 1 119 15 123 14 235 -8 104 -21 130 -17 109 16 -8 11 -40
23 -100 34 -114 22 -125 22 -118 3 4 -8 5 -15 3 -15 -2 0 -38 6 -79 14 -47 9
-154 16 -287 17 -117 1 -210 6 -207 10 2 4 -4 10 -13 13 -97 27 -193 59 -213
71 -24 15 -24 15 14 9 52 -9 42 6 -32 47 -31 17 -74 43 -94 56 -24 16 -44 23
-60 19 -13 -3 -17 -3 -10 0 17 8 -7 25 -88 66 -32 16 -72 43 -90 61 -27 27
-40 32 -96 37 l-65 6 -47 -91z m457 -114 c14 -10 26 -26 27 -34 2 -13 -3 -12
-26 5 -28 20 -47 48 -32 48 4 0 18 -9 31 -19z m416 -221 c3 -5 1 -10 -4 -10
-6 0 -11 5 -11 10 0 6 2 10 4 10 3 0 8 -4 11 -10z m-562 -220 c4 -17 2 -16
-29 2 -19 11 -34 21 -34 22 0 2 13 1 29 -2 17 -2 31 -11 34 -22z m630 -17 c-7
-2 -19 -2 -25 0 -7 3 -2 5 12 5 14 0 19 -2 13 -5z m80 -30 c-7 -2 -21 -2 -30
0 -10 3 -4 5 12 5 17 0 24 -2 18 -5z m-308 -13 c4 -6 -11 -10 -39 -10 -25 0
-48 5 -51 10 -4 6 11 10 39 10 25 0 48 -4 51 -10z m187 -2 c-35 -6 -66 -6 -90
0 -32 9 -24 10 53 10 88 0 89 -1 37 -10z"/>
<path d="M8659 2088 c-14 -27 -125 -108 -203 -148 -69 -36 -71 -39 -73 -77
l-1 -40 87 -11 c113 -15 156 -15 173 1 7 7 27 23 43 35 17 13 68 59 115 102
47 43 96 88 110 99 21 17 22 20 7 21 -10 0 -16 4 -12 9 6 11 -48 19 -158 23
-66 3 -80 1 -88 -14z m-24 -207 c-3 -5 3 -12 12 -14 14 -4 13 -5 -4 -6 -23 -1
-30 9 -16 22 9 10 15 8 8 -2z"/>
<path d="M5200 2062 c0 -5 7 -15 15 -22 8 -7 15 -8 15 -2 0 5 -7 15 -15 22 -8
7 -15 8 -15 2z"/>
<path d="M5255 2018 c9 -29 33 -48 51 -41 12 5 12 9 -3 25 -10 11 -26 24 -36
30 -17 8 -18 7 -12 -14z m45 -29 c0 -6 -4 -7 -10 -4 -5 3 -10 11 -10 16 0 6 5
7 10 4 6 -3 10 -11 10 -16z"/>
<path d="M8033 2016 c4 -10 7 -23 7 -31 0 -9 24 -15 78 -19 42 -4 91 -10 109
-13 28 -4 31 -3 26 16 -3 12 -9 21 -14 21 -5 0 -9 7 -9 15 0 10 -10 15 -32 15
-18 0 -64 3 -102 7 -63 6 -69 5 -63 -11z"/>
<path d="M5339 1971 c13 -24 29 -34 56 -38 18 -3 17 -1 -5 17 -14 11 -33 25
-43 31 -16 9 -17 8 -8 -10z"/>
<path d="M5900 1916 c14 -8 34 -15 45 -16 31 0 4 19 -35 25 l-35 6 25 -15z"/>
<path d="M5460 1880 c46 -40 73 -39 32 0 -18 17 -40 30 -49 30 -14 -1 -9 -8
17 -30z"/>
<path d="M5995 1859 c9 -14 96 -51 103 -44 8 8 2 11 -56 34 -29 12 -50 16 -47
10z"/>
<path d="M5547 1843 c-12 -11 -8 -18 22 -36 37 -21 50 -6 19 22 -23 22 -31 25
-41 14z"/>
<path d="M5620 1802 c0 -8 15 -20 100 -81 30 -21 29 -18 -11 21 -47 47 -89 75
-89 60z"/>
<path d="M8116 1781 c-4 -5 -2 -12 3 -15 17 -11 222 -45 235 -40 8 3 53 -2
102 -10 48 -9 92 -12 96 -8 5 5 -78 23 -184 41 -106 18 -205 34 -220 37 -14 3
-29 1 -32 -5z"/>
<path d="M8150 1659 c0 -20 4 -22 117 -44 46 -9 88 -13 93 -10 26 16 -4 31
-103 51 -101 20 -107 20 -107 3z"/>
<path d="M6975 1650 c27 -12 43 -12 25 0 -8 5 -22 9 -30 9 -10 0 -8 -3 5 -9z"/>
<path d="M5890 1576 c0 -2 8 -10 18 -17 15 -13 16 -12 3 4 -13 16 -21 21 -21
13z"/>
<path d="M6420 1565 c14 -8 30 -14 35 -14 6 0 -1 6 -15 14 -14 8 -29 14 -35
14 -5 0 1 -6 15 -14z"/>
<path d="M6420 1545 c0 -7 101 -57 106 -53 2 2 -21 16 -51 31 -30 15 -55 25
-55 22z"/>
<path d="M4692 1478 c-13 -31 -21 -62 -16 -69 5 -8 3 -9 -6 -4 -10 6 -12 3 -8
-13 4 -12 3 -20 -2 -17 -9 6 -100 -235 -100 -262 1 -14 3 -13 14 6 11 19 14
21 19 7 15 -39 57 23 57 83 -1 24 -1 25 -12 6 -16 -30 -18 -31 -28 -16 -5 9
-3 19 5 27 7 8 11 24 8 36 -4 19 -3 20 7 8 10 -13 11 -11 7 7 -3 12 -1 21 5
20 12 -3 80 191 76 218 -2 13 -11 1 -26 -37z"/>
<path d="M5968 1498 c13 -14 44 -40 70 -58 40 -28 43 -30 24 -8 -13 14 -44 40
-70 58 -40 28 -43 30 -24 8z"/>
<path d="M6487 1433 c-2 -5 -8 -26 -12 -48 -3 -21 -24 -86 -46 -144 -22 -58
-42 -122 -45 -143 -7 -43 -14 -46 -39 -18 -10 11 -21 20 -26 20 -4 0 8 -49 27
-110 31 -99 39 -114 82 -154 l47 -45 3 34 c2 19 -2 43 -8 55 -8 15 -7 26 2 43
11 20 13 18 21 -30 6 -39 12 -50 23 -46 9 3 14 23 16 62 3 109 6 156 13 191
10 52 44 162 59 190 8 14 17 39 20 56 7 30 4 33 -48 63 -56 31 -81 38 -89 24z
m19 -380 c-10 -26 -18 -8 -9 23 5 21 8 24 11 11 2 -10 1 -25 -2 -34z"/>
<path d="M6050 1399 c22 -42 330 -353 319 -322 -7 20 -143 163 -155 163 -6 0
-17 7 -24 15 -12 14 -10 15 14 11 15 -3 24 -1 21 5 -4 5 -10 7 -15 4 -4 -3
-14 3 -21 12 -12 14 -11 15 11 8 34 -10 50 -24 50 -44 0 -10 11 -28 24 -40
l25 -23 -22 43 c-28 58 -49 86 -94 120 -43 32 -58 36 -49 13 3 -9 -16 1 -45
22 -46 33 -50 35 -39 13z m111 -96 c13 -16 12 -17 -3 -4 -10 7 -18 15 -18 17
0 8 8 3 21 -13z"/>
<path d="M4725 1368 c-2 -7 -5 -25 -8 -40 -4 -24 -2 -26 14 -17 12 6 19 21 19
39 0 30 -17 42 -25 18z"/>
<path d="M4677 1263 c-7 -40 1 -63 14 -42 11 18 12 79 0 79 -4 0 -11 -16 -14
-37z"/>
<path d="M4583 1109 c3 -8 -4 -26 -14 -40 -10 -13 -19 -28 -18 -34 0 -5 7 -1
15 10 28 36 33 51 22 66 -8 12 -9 12 -5 -2z"/>
<path d="M4520 1053 c-35 -43 -70 -145 -51 -151 6 -2 8 -9 5 -15 -5 -8 -3 -8
6 0 8 7 14 28 14 47 1 19 5 34 10 33 5 -1 16 21 25 48 9 28 20 56 24 63 17 26
-3 10 -33 -25z"/>
</g>
</svg>
